<svg height="1182" width="720" xmlns="http://www.w3.org/2000/svg">
<rect height="1182" fill="#555" width="720"></rect>
<text fill="#7f7" font-family="Courier New" font-size="12" xml:space="preserve">
<tspan x="10" y="26">13 megabytes installed</tspan>
<tspan x="10" y="42"></tspan>
<tspan x="10" y="58">node_modules</tspan>
<tspan x="10" y="74">└─┬ waterline@0.11.11 </tspan>
<tspan x="10" y="90">  ├─┬ anchor@0.11.5 </tspan>
<tspan x="10" y="106">  │ ├─┬ @mapbox/geojsonhint@1.2.1 </tspan>
<tspan x="10" y="122">  │ │ ├─┬ chalk@1.1.3 </tspan>
<tspan x="10" y="138">  │ │ │ ├── ansi-styles@2.2.1 </tspan>
<tspan x="10" y="154">  │ │ │ ├── escape-string-regexp@1.0.5 </tspan>
<tspan x="10" y="170">  │ │ │ ├─┬ has-ansi@2.0.0 </tspan>
<tspan x="10" y="186">  │ │ │ │ └── ansi-regex@2.1.1 </tspan>
<tspan x="10" y="202">  │ │ │ ├── strip-ansi@3.0.1 </tspan>
<tspan x="10" y="218">  │ │ │ └── supports-color@2.0.0 </tspan>
<tspan x="10" y="234">  │ │ ├─┬ concat-stream@1.4.10 </tspan>
<tspan x="10" y="250">  │ │ │ ├── inherits@2.0.3 </tspan>
<tspan x="10" y="266">  │ │ │ ├─┬ readable-stream@1.1.14 </tspan>
<tspan x="10" y="282">  │ │ │ │ ├── core-util-is@1.0.2 </tspan>
<tspan x="10" y="298">  │ │ │ │ ├── isarray@0.0.1 </tspan>
<tspan x="10" y="314">  │ │ │ │ └── string_decoder@0.10.31 </tspan>
<tspan x="10" y="330">  │ │ │ └── typedarray@0.0.6 </tspan>
<tspan x="10" y="346">  │ │ ├─┬ jsonlint-lines@1.7.1 </tspan>
<tspan x="10" y="362">  │ │ │ ├── JSV@4.0.2 </tspan>
<tspan x="10" y="378">  │ │ │ └─┬ nomnom@1.8.1 </tspan>
<tspan x="10" y="394">  │ │ │   ├─┬ chalk@0.4.0 </tspan>
<tspan x="10" y="410">  │ │ │   │ ├── ansi-styles@1.0.0 </tspan>
<tspan x="10" y="426">  │ │ │   │ ├── has-color@0.1.7 </tspan>
<tspan x="10" y="442">  │ │ │   │ └── strip-ansi@0.1.1 </tspan>
<tspan x="10" y="458">  │ │ │   └── underscore@1.6.0 </tspan>
<tspan x="10" y="474">  │ │ ├── minimist@1.1.1 </tspan>
<tspan x="10" y="490">  │ │ └── text-table@0.2.0 </tspan>
<tspan x="10" y="506">  │ ├── @sailshq/lodash@3.10.2 </tspan>
<tspan x="10" y="522">  │ └── validator@4.4.0 </tspan>
<tspan x="10" y="538">  ├── async@1.5.2 </tspan>
<tspan x="10" y="554">  ├── bluebird@3.2.1 </tspan>
<tspan x="10" y="570">  ├── deep-diff@0.3.3 </tspan>
<tspan x="10" y="586">  ├── lodash@3.10.1 </tspan>
<tspan x="10" y="602">  ├─┬ prompt@0.2.14 </tspan>
<tspan x="10" y="618">  │ ├── pkginfo@0.4.0 </tspan>
<tspan x="10" y="634">  │ ├─┬ read@1.0.7 </tspan>
<tspan x="10" y="650">  │ │ └── mute-stream@0.0.7 </tspan>
<tspan x="10" y="666">  │ ├── revalidator@0.1.8 </tspan>
<tspan x="10" y="682">  │ ├─┬ utile@0.2.1 </tspan>
<tspan x="10" y="698">  │ │ ├── async@0.2.10 </tspan>
<tspan x="10" y="714">  │ │ ├── deep-equal@1.0.1 </tspan>
<tspan x="10" y="730">  │ │ ├── i@0.3.5 </tspan>
<tspan x="10" y="746">  │ │ ├─┬ mkdirp@0.5.1 </tspan>
<tspan x="10" y="762">  │ │ │ └── minimist@0.0.8 </tspan>
<tspan x="10" y="778">  │ │ ├── ncp@0.4.2 </tspan>
<tspan x="10" y="794">  │ │ └─┬ rimraf@2.6.1 </tspan>
<tspan x="10" y="810">  │ │   └─┬ glob@7.1.1 </tspan>
<tspan x="10" y="826">  │ │     ├── fs.realpath@1.0.0 </tspan>
<tspan x="10" y="842">  │ │     ├─┬ inflight@1.0.6 </tspan>
<tspan x="10" y="858">  │ │     │ └── wrappy@1.0.2 </tspan>
<tspan x="10" y="874">  │ │     ├─┬ minimatch@3.0.3 </tspan>
<tspan x="10" y="890">  │ │     │ └─┬ brace-expansion@1.1.7 </tspan>
<tspan x="10" y="906">  │ │     │   ├── balanced-match@0.4.2 </tspan>
<tspan x="10" y="922">  │ │     │   └── concat-map@0.0.1 </tspan>
<tspan x="10" y="938">  │ │     ├── once@1.4.0 </tspan>
<tspan x="10" y="954">  │ │     └── path-is-absolute@1.0.1 </tspan>
<tspan x="10" y="970">  │ └─┬ winston@0.8.3 </tspan>
<tspan x="10" y="986">  │   ├── async@0.2.10 </tspan>
<tspan x="10" y="1002">  │   ├── colors@0.6.2 </tspan>
<tspan x="10" y="1018">  │   ├── cycle@1.0.3 </tspan>
<tspan x="10" y="1034">  │   ├── eyes@0.1.8 </tspan>
<tspan x="10" y="1050">  │   ├── isstream@0.1.2 </tspan>
<tspan x="10" y="1066">  │   ├── pkginfo@0.3.1 </tspan>
<tspan x="10" y="1082">  │   └── stack-trace@0.0.9 </tspan>
<tspan x="10" y="1098">  ├─┬ switchback@2.0.0 </tspan>
<tspan x="10" y="1114">  │ └── lodash@2.4.2 </tspan>
<tspan x="10" y="1130">  ├─┬ waterline-criteria@0.11.2 </tspan>
<tspan x="10" y="1146">  │ └── lodash@2.4.2 </tspan>
<tspan x="10" y="1162">  └── waterline-schema@0.2.2</tspan>
</text>
</svg>
